<svg width="250" height="250" viewBox="0 0 250 250" fill="none" xmlns="http://www.w3.org/2000/svg">
<mask id="path-1-inside-1_2416_12" fill="white">
<path d="M250 125C250 153.919 239.973 181.944 221.626 204.299C203.28 226.654 177.75 241.956 149.386 247.598C121.023 253.24 91.5801 248.873 66.0754 235.24C40.5708 221.608 20.582 199.553 9.51506 172.835C-1.55192 146.117 -3.0124 116.389 5.38245 88.7144C13.7773 61.0403 31.5081 37.1331 55.5537 21.0663C79.5993 4.99954 108.472 -2.23269 137.252 0.601908C166.032 3.4365 192.939 16.1625 213.388 36.6116L206.317 43.6827C187.504 24.8695 162.75 13.1616 136.272 10.5538C109.794 7.94593 83.2314 14.5996 61.1094 29.381C38.9875 44.1624 22.6751 66.1571 14.9519 91.6173C7.22859 117.077 8.57224 144.428 18.7539 169.009C28.9355 193.589 47.3251 213.879 70.7894 226.421C94.2537 238.963 121.341 242.981 147.435 237.79C173.53 232.6 197.018 218.522 213.896 197.955C230.775 177.389 240 151.606 240 125H250Z"/>
</mask>
<path d="M250 125C250 153.919 239.973 181.944 221.626 204.299C203.28 226.654 177.75 241.956 149.386 247.598C121.023 253.24 91.5801 248.873 66.0754 235.24C40.5708 221.608 20.582 199.553 9.51506 172.835C-1.55192 146.117 -3.0124 116.389 5.38245 88.7144C13.7773 61.0403 31.5081 37.1331 55.5537 21.0663C79.5993 4.99954 108.472 -2.23269 137.252 0.601908C166.032 3.4365 192.939 16.1625 213.388 36.6116L206.317 43.6827C187.504 24.8695 162.75 13.1616 136.272 10.5538C109.794 7.94593 83.2314 14.5996 61.1094 29.381C38.9875 44.1624 22.6751 66.1571 14.9519 91.6173C7.22859 117.077 8.57224 144.428 18.7539 169.009C28.9355 193.589 47.3251 213.879 70.7894 226.421C94.2537 238.963 121.341 242.981 147.435 237.79C173.53 232.6 197.018 218.522 213.896 197.955C230.775 177.389 240 151.606 240 125H250Z" fill="#DEAA79" stroke="#DEAA79" stroke-width="2" mask="url(#path-1-inside-1_2416_12)"/>
<rect x="125.5" y="105.5" width="124" height="19" fill="#DEAA79" stroke="#DEAA79"/>
<rect x="95.5" y="75.5" width="134" height="19" fill="#DEAA79" stroke="#DEAA79"/>
<path d="M225 125C225 180.228 180.228 225 125 225C69.7715 225 25 180.228 25 125" stroke="#DEAA79" stroke-width="10"/>
<rect x="220.5" y="85.5" width="9" height="39" fill="#DEAA79" stroke="#DEAA79"/>
</svg>
